<svg xmlns="http://www.w3.org/2000/svg" width="48" height="48" fill="none" viewBox="0 0 48 48">
  <circle cx="13.8" cy="14.2" r="7.4" fill="#1687FF"/>
  <circle cx="34.2" cy="14.2" r="7.4" fill="#1687FF"/>
  <path d="M8.2 26.4C8.2 16.4 14.8 10.2 24 10.2s15.8 6.2 15.8 16.2C39.8 35.9 33.2 41.6 24 41.6S8.2 35.9 8.2 26.4Z" fill="#FFFFFF" stroke="#1687FF" stroke-width="2.6" stroke-linejoin="round"/>
  <ellipse cx="18.7" cy="25.4" rx="4.2" ry="5.9" fill="#1687FF" transform="rotate(20 18.7 25.4)"/>
  <ellipse cx="29.3" cy="25.4" rx="4.2" ry="5.9" fill="#1687FF" transform="rotate(-20 29.3 25.4)"/>
  <circle cx="19.5" cy="25.8" r="1.1" fill="#FFFFFF"/>
  <circle cx="28.5" cy="25.8" r="1.1" fill="#FFFFFF"/>
  <path d="M21.6 31.1h4.8a1 1 0 0 1 .7 1.7L24 35.3l-3.1-2.5a1 1 0 0 1 .7-1.7Z" fill="#1687FF"/>
  <path d="M24 34.7v2.3" stroke="#1687FF" stroke-width="2.1" stroke-linecap="round"/>
  <path d="M19.4 36c1 1.45 2.7 2.2 4.6 2.2s3.6-.75 4.6-2.2" stroke="#1687FF" stroke-width="2.1" stroke-linecap="round"/>
</svg>

